<mxfile host="app.diagrams.net" agent="Mozilla/5.0 (Windows NT 10.0; Win64; x64) AppleWebKit/537.36 (KHTML, like Gecko) Chrome/130.0.0.0 Safari/537.36" version="24.8.3">
  <diagram name="Page-1" id="e0UPksUb_2R0cpyEKxwO">
    <mxGraphModel dx="954" dy="1658" grid="1" gridSize="10" guides="1" tooltips="1" connect="1" arrows="1" fold="1" page="1" pageScale="1" pageWidth="850" pageHeight="1100" math="0" shadow="0">
      <root>
        <mxCell id="0" />
        <mxCell id="1" parent="0" />
        <mxCell id="mwgmDoQ_D7T0AYcq4sDt-3" value="Feed Generator (UDP)" style="swimlane;whiteSpace=wrap;html=1;" vertex="1" parent="1">
          <mxGeometry x="30" y="-1060" width="180" height="120" as="geometry" />
        </mxCell>
        <mxCell id="mwgmDoQ_D7T0AYcq4sDt-10" value="&lt;b&gt;8012&lt;/b&gt;" style="text;html=1;align=center;verticalAlign=middle;whiteSpace=wrap;rounded=0;" vertex="1" parent="mwgmDoQ_D7T0AYcq4sDt-3">
          <mxGeometry x="50" y="90" width="50" height="30" as="geometry" />
        </mxCell>
        <mxCell id="mwgmDoQ_D7T0AYcq4sDt-11" value="&lt;b&gt;8014&lt;/b&gt;" style="text;html=1;align=center;verticalAlign=middle;whiteSpace=wrap;rounded=0;" vertex="1" parent="mwgmDoQ_D7T0AYcq4sDt-3">
          <mxGeometry x="130" y="60" width="50" height="30" as="geometry" />
        </mxCell>
        <mxCell id="mwgmDoQ_D7T0AYcq4sDt-12" value="&lt;b&gt;8013&lt;/b&gt;" style="text;html=1;align=center;verticalAlign=middle;whiteSpace=wrap;rounded=0;" vertex="1" parent="mwgmDoQ_D7T0AYcq4sDt-3">
          <mxGeometry x="100" y="80" width="50" height="30" as="geometry" />
        </mxCell>
        <mxCell id="mwgmDoQ_D7T0AYcq4sDt-13" value="&lt;b&gt;&lt;i&gt;74.198.41.22&lt;/i&gt;&lt;/b&gt;" style="text;html=1;align=center;verticalAlign=middle;whiteSpace=wrap;rounded=0;" vertex="1" parent="mwgmDoQ_D7T0AYcq4sDt-3">
          <mxGeometry x="30" y="40" width="90" height="30" as="geometry" />
        </mxCell>
        <mxCell id="mwgmDoQ_D7T0AYcq4sDt-6" value="" style="endArrow=classic;html=1;rounded=0;exitX=1;exitY=0.75;exitDx=0;exitDy=0;" edge="1" parent="1" source="mwgmDoQ_D7T0AYcq4sDt-3">
          <mxGeometry width="50" height="50" relative="1" as="geometry">
            <mxPoint x="390" y="-910" as="sourcePoint" />
            <mxPoint x="320" y="-830" as="targetPoint" />
          </mxGeometry>
        </mxCell>
        <mxCell id="mwgmDoQ_D7T0AYcq4sDt-7" value="" style="endArrow=classic;html=1;rounded=0;exitX=0.75;exitY=1;exitDx=0;exitDy=0;" edge="1" parent="1" source="mwgmDoQ_D7T0AYcq4sDt-3">
          <mxGeometry width="50" height="50" relative="1" as="geometry">
            <mxPoint x="390" y="-910" as="sourcePoint" />
            <mxPoint x="320" y="-830" as="targetPoint" />
          </mxGeometry>
        </mxCell>
        <mxCell id="mwgmDoQ_D7T0AYcq4sDt-8" value="" style="endArrow=classic;html=1;rounded=0;exitX=0.5;exitY=1;exitDx=0;exitDy=0;" edge="1" parent="1" source="mwgmDoQ_D7T0AYcq4sDt-3">
          <mxGeometry width="50" height="50" relative="1" as="geometry">
            <mxPoint x="175" y="-930" as="sourcePoint" />
            <mxPoint x="320" y="-830" as="targetPoint" />
          </mxGeometry>
        </mxCell>
        <mxCell id="mwgmDoQ_D7T0AYcq4sDt-9" value="&lt;b&gt;&lt;font style=&quot;font-size: 14px;&quot;&gt;C++&lt;/font&gt;&lt;/b&gt;" style="text;html=1;align=center;verticalAlign=middle;whiteSpace=wrap;rounded=0;" vertex="1" parent="1">
          <mxGeometry x="20" y="-1080" width="50" height="20" as="geometry" />
        </mxCell>
        <mxCell id="mwgmDoQ_D7T0AYcq4sDt-15" value="Vertical Container" style="swimlane;whiteSpace=wrap;html=1;" vertex="1" parent="1">
          <mxGeometry x="410" y="-1020" width="200" height="60" as="geometry" />
        </mxCell>
        <mxCell id="mwgmDoQ_D7T0AYcq4sDt-16" value="&lt;b&gt;&lt;font style=&quot;font-size: 14px;&quot;&gt;GOLang&lt;/font&gt;&lt;/b&gt;" style="text;html=1;align=center;verticalAlign=middle;whiteSpace=wrap;rounded=0;" vertex="1" parent="1">
          <mxGeometry x="410" y="-1040" width="50" height="20" as="geometry" />
        </mxCell>
        <mxCell id="mwgmDoQ_D7T0AYcq4sDt-17" value="Feed Generator (UDP)" style="swimlane;whiteSpace=wrap;html=1;" vertex="1" parent="1">
          <mxGeometry x="40" y="-870" width="180" height="120" as="geometry" />
        </mxCell>
        <mxCell id="mwgmDoQ_D7T0AYcq4sDt-18" value="&lt;b&gt;8012&lt;/b&gt;" style="text;html=1;align=center;verticalAlign=middle;whiteSpace=wrap;rounded=0;" vertex="1" parent="mwgmDoQ_D7T0AYcq4sDt-17">
          <mxGeometry x="50" y="90" width="50" height="30" as="geometry" />
        </mxCell>
        <mxCell id="mwgmDoQ_D7T0AYcq4sDt-19" value="&lt;b&gt;8014&lt;/b&gt;" style="text;html=1;align=center;verticalAlign=middle;whiteSpace=wrap;rounded=0;" vertex="1" parent="mwgmDoQ_D7T0AYcq4sDt-17">
          <mxGeometry x="130" y="60" width="50" height="30" as="geometry" />
        </mxCell>
        <mxCell id="mwgmDoQ_D7T0AYcq4sDt-20" value="&lt;b&gt;8013&lt;/b&gt;" style="text;html=1;align=center;verticalAlign=middle;whiteSpace=wrap;rounded=0;" vertex="1" parent="mwgmDoQ_D7T0AYcq4sDt-17">
          <mxGeometry x="100" y="80" width="50" height="30" as="geometry" />
        </mxCell>
        <mxCell id="mwgmDoQ_D7T0AYcq4sDt-21" value="&lt;b&gt;&lt;i&gt;74.198.41.22&lt;/i&gt;&lt;/b&gt;" style="text;html=1;align=center;verticalAlign=middle;whiteSpace=wrap;rounded=0;" vertex="1" parent="mwgmDoQ_D7T0AYcq4sDt-17">
          <mxGeometry x="30" y="40" width="90" height="30" as="geometry" />
        </mxCell>
        <mxCell id="mwgmDoQ_D7T0AYcq4sDt-22" value="&lt;b&gt;&lt;font style=&quot;font-size: 14px;&quot;&gt;C++&lt;/font&gt;&lt;/b&gt;" style="text;html=1;align=center;verticalAlign=middle;whiteSpace=wrap;rounded=0;" vertex="1" parent="1">
          <mxGeometry x="30" y="-890" width="50" height="20" as="geometry" />
        </mxCell>
      </root>
    </mxGraphModel>
  </diagram>
</mxfile>
